<svg width="11" height="11" viewBox="0 0 11 11" fill="none" xmlns="http://www.w3.org/2000/svg">
<path d="M9.37269 9.37267H7.74281V6.81998C7.74281 6.21127 7.73195 5.42766 6.89512 5.42766C6.0462 5.42766 5.9163 6.09086 5.9163 6.77561V9.37244H4.28643V4.1231H5.85108V4.84048H5.87304C6.19163 4.29571 6.78617 3.96915 7.41684 3.99257C9.06881 3.99257 9.37337 5.07923 9.37337 6.49296L9.37269 9.37267ZM2.44741 3.40553C1.92848 3.40553 1.50132 2.9786 1.50132 2.45967C1.50132 1.94075 1.9283 1.51376 2.44718 1.51376C2.96601 1.51376 3.39295 1.94065 3.39304 2.45949C3.39304 2.97832 2.96615 3.40549 2.44741 3.40553ZM3.26233 9.37267H1.63075V4.1231H3.26233V9.37267ZM10.1852 7.01667e-05H0.811662C0.371662 -0.00492567 0.0053625 0.352895 0 0.792941V10.2061C0.00517917 10.6464 0.371433 11.0047 0.811662 10.9999H10.1852C10.6266 11.0055 10.9941 10.6473 11 10.2061V0.792299C10.9941 0.351337 10.626 -0.00575067 10.1852 7.01667e-05Z" fill="#FEFEFE"/>
</svg>
