<svg width="7" height="12" viewBox="0 0 7 12" fill="none" xmlns="http://www.w3.org/2000/svg">
<path fill-rule="evenodd" clip-rule="evenodd" d="M3.94758 1.89245C4.62191 2.12881 4.97401 2.86215 4.74128 3.52884C4.50259 4.19549 3.76259 4.54699 3.08826 4.31669C2.41398 4.08033 2.06188 3.34699 2.2946 2.68035C2.5333 2.00761 3.2733 1.6561 3.94758 1.89245ZM5.43946 6.49247C5.63042 6.37732 5.8393 6.26821 6.06008 6.25607C6.29281 6.24398 6.59119 6.37122 6.74636 6.53489C7.07457 6.88639 7.09846 7.47426 6.73441 7.80763C6.6807 7.86213 6.60911 7.91669 6.53748 7.9591C5.89301 8.33489 5.523 8.51669 4.78305 8.68035C4.87853 8.75913 4.97998 8.8561 5.06352 8.93489C5.56481 9.42578 6.07203 9.91063 6.56735 10.4016C6.89555 10.7228 6.9075 11.1894 6.6688 11.5652C6.41218 11.9652 5.88704 12.0682 5.47526 11.8379C5.36788 11.7773 5.26642 11.6924 5.15302 11.5834C4.62191 11.0561 4.08487 10.5349 3.54181 10.0197C3.47018 10.0864 3.35085 10.2137 3.26135 10.3046C2.78992 10.7773 2.3304 11.2561 1.853 11.7228C1.46511 12.1167 0.880328 12.0803 0.504335 11.6804C0.22387 11.3834 0.188076 10.9046 0.438722 10.5712C0.581942 10.3955 0.743035 10.2379 0.904174 10.0803C1.26817 9.70459 1.88286 9.12278 2.21704 8.74095C1.6143 8.54701 0.880328 8.3167 0.379036 7.95306C-0.0506228 7.63792 -0.11031 7.10456 0.176129 6.68032C0.283556 6.5167 0.438722 6.40155 0.683395 6.34095C0.957887 6.27426 1.22641 6.3349 1.47108 6.46819C2.19315 6.87426 2.81974 7.08033 3.76857 7.01369C4.35339 6.94095 4.93224 6.78942 5.43946 6.49247ZM4.5563 0.177283C2.92717 -0.392395 1.14287 0.456098 0.569995 2.07425C-0.00288351 3.69245 0.850461 5.46213 2.47959 6.02581C4.10872 6.59549 5.89301 5.74699 6.46589 4.12884C7.03877 2.51668 6.18543 0.747006 4.5563 0.177283Z" fill="#FEFEFE"/>
</svg>
