<svg width="11" height="12" viewBox="0 0 11 12" fill="none" xmlns="http://www.w3.org/2000/svg">
<path fill-rule="evenodd" clip-rule="evenodd" d="M11 2.87418L11 4.92808C9.87714 4.92808 8.8375 4.5888 7.98853 4.01215V8.20362C7.98853 10.3003 6.20022 12 3.99434 12C3.1713 12 2.40627 11.7635 1.77076 11.3579L1.77033 11.3575C0.702613 10.676 0 9.5178 0 8.20357C0 6.10703 1.78831 4.40732 3.99443 4.40732C4.17775 4.40723 4.36088 4.419 4.54247 4.44263L4.54238 6.5424C4.36757 6.48969 4.18124 6.46108 3.98788 6.46108C2.97875 6.46108 2.16083 7.23858 2.16083 8.19762C2.16083 8.87575 2.56965 9.46292 3.16585 9.74889C3.41311 9.86746 3.69222 9.93415 3.98793 9.93415C4.995 9.93415 5.81154 9.15983 5.81503 8.20357V0H7.98858C7.98858 0.169569 7.99083 0.332492 8.02168 0.499984C8.17252 1.31783 8.68703 2.0166 9.40113 2.44011C9.88068 2.7246 10.4348 2.87502 11 2.87418Z" fill="#FEFEFE"/>
</svg>
