<svg width="11" height="12" viewBox="0 0 11 12" fill="none" xmlns="http://www.w3.org/2000/svg">
<path d="M8.51396 0.284815C6.51745 -0.0949385 4.44414 -0.0949385 2.44764 0.284815C1.56457 0.474692 0.451132 1.53803 0.259158 2.37355C-0.0863861 4.00652 -0.0863861 5.67753 0.259158 7.31049C0.489537 8.14597 1.60298 9.20931 2.44764 9.39923C2.48604 9.39923 2.52445 9.43717 2.52445 9.47516V11.8677C2.52445 11.9816 2.67802 12.0576 2.75478 11.9437L3.90662 10.7664C3.90662 10.7664 4.82809 9.81697 4.98166 9.66503C4.98166 9.66503 5.02006 9.6271 5.05847 9.6271C6.21031 9.66503 7.40052 9.55113 8.55236 9.36125C9.43542 9.17137 10.5489 8.10799 10.7408 7.27251C11.0864 5.63954 11.0864 3.96854 10.7408 2.33557C10.5105 1.53803 9.39702 0.474692 8.51396 0.284815ZM8.55236 7.42445C8.36039 7.8042 8.13001 8.10799 7.74606 8.29791C7.6309 8.33585 7.51573 8.37383 7.40052 8.41182C7.24695 8.37383 7.13178 8.33585 7.01657 8.29791C5.78796 7.8042 4.63612 7.12062 3.71465 6.1332C3.21553 5.56357 2.79318 4.91797 2.44764 4.23439C2.29407 3.89262 2.1405 3.58879 2.02528 3.24702C1.91012 2.94319 2.10209 2.63935 2.29407 2.41149C2.48604 2.18368 2.71642 2.03174 2.98516 1.91783C3.17713 1.80388 3.3691 1.87985 3.52267 2.03174C3.82986 2.41149 4.137 2.79129 4.36738 3.20903C4.52095 3.47488 4.48255 3.77866 4.21376 3.96854C4.137 4.00652 4.0986 4.04451 4.02179 4.12048C3.98343 4.15842 3.90662 4.1964 3.86822 4.27237C3.79146 4.38628 3.79146 4.50023 3.82986 4.61414C4.137 5.4876 4.71292 6.17119 5.59599 6.55099C5.74956 6.62691 5.86477 6.66489 6.05675 6.66489C6.32548 6.62691 6.44065 6.32313 6.63262 6.17119C6.82459 6.01929 7.05497 6.0193 7.28535 6.1332C7.47733 6.24716 7.6693 6.39905 7.89968 6.55099C8.09161 6.70288 8.28358 6.81679 8.47555 6.96873C8.59077 7.04465 8.62917 7.23453 8.55236 7.42445ZM6.93981 4.5762C6.863 4.5762 6.9014 4.5762 6.93981 4.5762C6.78624 4.5762 6.74783 4.50023 6.70943 4.38628C6.70943 4.31036 6.70943 4.1964 6.67102 4.12048C6.63262 3.96854 6.55586 3.81665 6.40229 3.70274C6.32548 3.66476 6.24867 3.62677 6.17191 3.58879C6.0567 3.5508 5.97994 3.5508 5.86477 3.5508C5.74956 3.51282 5.71115 3.43689 5.71115 3.32294C5.71115 3.24702 5.82637 3.17105 5.90313 3.17105C6.51745 3.20903 6.97821 3.5508 7.05497 4.27237C7.05497 4.31036 7.05497 4.38628 7.05497 4.42426C7.05497 4.50023 7.01657 4.5762 6.93981 4.5762ZM6.55586 2.9052C6.36388 2.82928 6.17191 2.75331 5.94153 2.71532C5.86477 2.71532 5.74956 2.67734 5.6728 2.67734C5.55758 2.67734 5.48082 2.60142 5.51918 2.48746C5.51918 2.37355 5.59599 2.29759 5.71115 2.33557C6.0951 2.37355 6.44065 2.44948 6.78624 2.60142C7.47733 2.94319 7.86127 3.51282 7.97644 4.27237C7.97644 4.31036 7.97644 4.34834 7.97644 4.38628C7.97644 4.46225 7.97644 4.53822 7.97644 4.65212C7.97644 4.69011 7.97644 4.72809 7.97644 4.76608C7.93804 4.91797 7.6693 4.95596 7.6309 4.76608C7.6309 4.72809 7.59249 4.65212 7.59249 4.61414C7.59249 4.27237 7.51573 3.9306 7.36211 3.62677C7.13178 3.28496 6.863 3.05714 6.55586 2.9052ZM8.62917 5.18382C8.51396 5.18382 8.4372 5.06986 8.4372 4.95596C8.4372 4.72809 8.39879 4.50023 8.36039 4.27237C8.20682 3.05714 7.20854 2.06972 6.01834 1.87985C5.82637 1.84186 5.63439 1.84186 5.48082 1.80388C5.36561 1.80388 5.21204 1.80388 5.17363 1.65199C5.13523 1.53803 5.25044 1.42412 5.36561 1.42412C5.40401 1.42412 5.44242 1.42412 5.44242 1.42412C5.51918 1.42412 7.01657 1.46211 5.44242 1.42412C7.05497 1.46211 8.39879 2.52545 8.66753 4.12048C8.70593 4.38628 8.74434 4.65212 8.74434 4.95596C8.82115 5.06986 8.74434 5.18382 8.62917 5.18382Z" fill="#FEFEFE"/>
</svg>
