<svg width="12" height="8" viewBox="0 0 12 8" fill="none" xmlns="http://www.w3.org/2000/svg">
<path fill-rule="evenodd" clip-rule="evenodd" d="M10.6951 0.244706C11.2091 0.376518 11.6144 0.762306 11.7527 1.25181C12.0098 2.14584 11.9999 4.00941 11.9999 4.00941C11.9999 4.00941 11.9999 5.86348 11.7528 6.7576C11.6144 7.24701 11.2092 7.63289 10.6951 7.76461C9.75609 8 5.99995 8 5.99995 8C5.99995 8 2.25365 8 1.30481 7.75529C0.790753 7.62348 0.385523 7.2376 0.247108 6.74819C1.92569e-07 5.86348 0 4 0 4C0 4 1.92569e-07 2.14584 0.247108 1.25181C0.385431 0.7624 0.80063 0.367106 1.30472 0.235388C2.24377 1.40246e-07 5.99986 0 5.99986 0C5.99986 0 9.75609 2.24394e-07 10.6951 0.244706ZM7.84615 4L4.61538 5.64706V2.35294L7.84615 4Z" fill="#FEFEFE"/>
</svg>
