<svg width="13" height="14" viewBox="0 0 13 14" fill="none" xmlns="http://www.w3.org/2000/svg">
<path fill-rule="evenodd" clip-rule="evenodd" d="M2.64859 0.229437C2.32971 -0.114144 1.79912 -0.0652781 1.53488 0.331995L0.654388 1.65576C0.224948 2.30141 -0.00219899 3.07326 1.60466e-05 3.85088C0.00181439 4.47949 0.15349 5.11188 0.469348 5.68443C2.47051 9.31202 4.37774 11.3252 7.71286 13.484C8.90328 14.2545 10.3798 14.1381 11.4722 13.2947L12.6919 12.353C13.0606 12.0683 13.1059 11.4966 12.787 11.1531L10.7119 8.91712C10.4748 8.66173 10.1058 8.6141 9.81707 8.80171C8.85714 9.6364 7.40812 9.55903 6.54254 8.62686L5.01766 6.98468C4.10393 6.00066 4.02532 4.50377 4.83096 3.42946C5.00507 3.11839 4.9609 2.72082 4.72385 2.46541L2.64859 0.229437Z" fill="#FEFEFE"/>
</svg>
