<svg width="12" height="12" viewBox="0 0 12 12" fill="none" xmlns="http://www.w3.org/2000/svg">
<path fill-rule="evenodd" clip-rule="evenodd" d="M6 0C7.7442 0.0231692 9.44188 0.81083 10.5582 2.15446C11.4651 3.22006 11.9767 4.61003 12 6C11.7726 5.98971 11.5452 5.98168 11.3178 5.97369C10.522 5.94568 9.72609 5.91762 8.93022 5.79152C8.20929 5.67568 7.51163 5.37452 7.02328 4.81855C6.51162 4.28571 6.27909 3.56755 6.18605 2.8494C6.04652 1.8996 6.02326 0.9498 6 0ZM0 6C0.0463385 4.05406 1.04248 2.17758 2.61775 1.08882C3.59072 0.393831 4.79538 0.0231692 6 0C5.99128 0.218077 5.985 0.436985 5.97877 0.656261C5.95172 1.60154 5.92449 2.55351 5.69885 3.47492C5.49037 4.28571 4.95752 5.02703 4.19303 5.42086C3.47492 5.79152 2.66409 5.86098 1.85326 5.93049C1.22778 5.97683 0.625477 6 0 6ZM0 6C0.210646 6.00942 0.422262 6.01689 0.634431 6.02442C1.47217 6.05409 2.31882 6.08409 3.1506 6.23257C3.84554 6.37209 4.51735 6.6744 5.00386 7.20932C5.55983 7.8372 5.76835 8.67443 5.86098 9.48835C5.95366 10.3256 5.97683 11.1628 6 12C6.00845 11.8019 6.01532 11.6038 6.02225 11.4058C6.0534 10.5115 6.08446 9.62008 6.25583 8.74417C6.39535 7.99998 6.79071 7.30232 7.39537 6.83723C7.95351 6.41861 8.67443 6.25583 9.34883 6.16278C10.0116 6.09305 10.6744 6.06249 11.3372 6.03198C11.5581 6.02178 11.7791 6.01163 12 6C11.9767 7.69768 11.2093 9.39535 9.90697 10.5116C8.83722 11.4651 7.41858 11.9767 6 12C4.30888 11.9767 2.61775 11.2093 1.50577 9.90697C0.55597 8.86048 0.0231692 7.44185 0 6Z" fill="#FEFEFE"/>
</svg>
