<svg width="12" height="12" viewBox="0 0 12 12" fill="none" xmlns="http://www.w3.org/2000/svg">
<path fill-rule="evenodd" clip-rule="evenodd" d="M3.49219 12H8.5104C10.4302 12 12.0025 10.4703 12 8.60008V3.39748C12 1.52972 10.4276 0 8.50782 0H3.4896C1.56979 0 -0.00258143 1.52972 3.18184e-06 3.39748V8.60257C3.18184e-06 10.4703 1.57237 12 3.49219 12ZM9.78189 2.86154C9.85103 2.48548 9.60503 2.11085 9.23248 2.02477C8.85997 1.93874 8.50196 2.1738 8.43282 2.54986C8.36373 2.92592 8.60968 3.30055 8.98223 3.38658C9.35479 3.47266 9.7128 3.2376 9.78189 2.86154ZM9.23077 6C9.23077 7.78398 7.78399 9.23077 6 9.23077C4.21602 9.23077 2.76923 7.78398 2.76923 6C2.76923 4.21602 4.21602 2.76923 6 2.76923C7.78399 2.76923 9.23077 4.21602 9.23077 6ZM5.98237 3.88643C4.81486 3.88643 3.86626 4.83503 3.86626 6.00254C3.86626 7.17 4.81486 8.1186 5.98237 8.1186C7.14988 8.1186 8.09848 7.17 8.09848 6.00254C8.09848 4.83249 7.15242 3.88643 5.98237 3.88643Z" fill="#FEFEFE"/>
</svg>
