<svg width="121" height="54" viewBox="0 0 121 54" fill="none" xmlns="http://www.w3.org/2000/svg">
<g filter="url(#filter0_d_5_552)">
<path d="M4.7919 35V0.0909081H12.1726V28.9148H27.1385V35H4.7919ZM43.7195 35.5114C41.0717 35.5114 38.782 34.9489 36.8501 33.8239C34.9297 32.6875 33.4467 31.108 32.4013 29.0852C31.3558 27.0511 30.8331 24.6932 30.8331 22.0114C30.8331 19.3068 31.3558 16.9432 32.4013 14.9205C33.4467 12.8864 34.9297 11.3068 36.8501 10.1818C38.782 9.04545 41.0717 8.47727 43.7195 8.47727C46.3672 8.47727 48.6513 9.04545 50.5717 10.1818C52.5036 11.3068 53.9922 12.8864 55.0376 14.9205C56.0831 16.9432 56.6058 19.3068 56.6058 22.0114C56.6058 24.6932 56.0831 27.0511 55.0376 29.0852C53.9922 31.108 52.5036 32.6875 50.5717 33.8239C48.6513 34.9489 46.3672 35.5114 43.7195 35.5114ZM43.7536 29.8864C44.9581 29.8864 45.9638 29.5455 46.7706 28.8636C47.5774 28.1705 48.1854 27.2273 48.5945 26.0341C49.0149 24.8409 49.2251 23.483 49.2251 21.9602C49.2251 20.4375 49.0149 19.0795 48.5945 17.8864C48.1854 16.6932 47.5774 15.75 46.7706 15.0568C45.9638 14.3636 44.9581 14.017 43.7536 14.017C42.5376 14.017 41.5149 14.3636 40.6854 15.0568C39.8672 15.75 39.2479 16.6932 38.8274 17.8864C38.4183 19.0795 38.2138 20.4375 38.2138 21.9602C38.2138 23.483 38.4183 24.8409 38.8274 26.0341C39.2479 27.2273 39.8672 28.1705 40.6854 28.8636C41.5149 29.5455 42.5376 29.8864 43.7536 29.8864ZM73.1229 45.3636C70.7706 45.3636 68.7536 45.0398 67.0717 44.392C65.4013 43.7557 64.0717 42.8864 63.0831 41.7841C62.0945 40.6818 61.4524 39.4432 61.157 38.0682L67.8729 37.1648C68.0774 37.6875 68.4013 38.1761 68.8445 38.6307C69.2876 39.0852 69.8729 39.4489 70.6001 39.7216C71.3388 40.0057 72.2365 40.1477 73.2933 40.1477C74.8729 40.1477 76.174 39.7614 77.1967 38.9886C78.2308 38.2273 78.7479 36.9489 78.7479 35.1534V30.3636H78.4411C78.1229 31.0909 77.6456 31.7784 77.0092 32.4261C76.3729 33.0739 75.5547 33.6023 74.5547 34.0114C73.5547 34.4205 72.3615 34.625 70.9751 34.625C69.0092 34.625 67.2195 34.1705 65.6058 33.2614C64.0036 32.3409 62.7251 30.9375 61.7706 29.0511C60.8274 27.1534 60.3558 24.7557 60.3558 21.858C60.3558 18.892 60.8388 16.4148 61.8047 14.4261C62.7706 12.4375 64.0547 10.9489 65.657 9.96023C67.2706 8.97159 69.0376 8.47727 70.9581 8.47727C72.424 8.47727 73.6513 8.72727 74.6399 9.22727C75.6286 9.71591 76.424 10.3295 77.0263 11.0682C77.6399 11.7955 78.1115 12.5114 78.4411 13.2159H78.7138V8.81818H85.924V35.2557C85.924 37.483 85.3786 39.3466 84.2876 40.8466C83.1967 42.3466 81.6854 43.4716 79.7536 44.2216C77.8331 44.983 75.6229 45.3636 73.1229 45.3636ZM73.2763 29.1705C74.4467 29.1705 75.4354 28.8807 76.2422 28.3011C77.0604 27.7102 77.6854 26.8693 78.1172 25.7784C78.5604 24.6761 78.782 23.358 78.782 21.8239C78.782 20.2898 78.5661 18.9602 78.1342 17.8352C77.7024 16.6989 77.0774 15.8182 76.2592 15.1932C75.4411 14.5682 74.4467 14.2557 73.2763 14.2557C72.0831 14.2557 71.0774 14.5795 70.2592 15.2273C69.4411 15.8636 68.8217 16.75 68.4013 17.8864C67.9808 19.0227 67.7706 20.3352 67.7706 21.8239C67.7706 23.3352 67.9808 24.642 68.4013 25.7443C68.8331 26.8352 69.4524 27.6818 70.2592 28.2841C71.0774 28.875 72.0831 29.1705 73.2763 29.1705ZM103.532 35.5114C100.884 35.5114 98.5945 34.9489 96.6626 33.8239C94.7422 32.6875 93.2592 31.108 92.2138 29.0852C91.1683 27.0511 90.6456 24.6932 90.6456 22.0114C90.6456 19.3068 91.1683 16.9432 92.2138 14.9205C93.2592 12.8864 94.7422 11.3068 96.6626 10.1818C98.5945 9.04545 100.884 8.47727 103.532 8.47727C106.18 8.47727 108.464 9.04545 110.384 10.1818C112.316 11.3068 113.805 12.8864 114.85 14.9205C115.896 16.9432 116.418 19.3068 116.418 22.0114C116.418 24.6932 115.896 27.0511 114.85 29.0852C113.805 31.108 112.316 32.6875 110.384 33.8239C108.464 34.9489 106.18 35.5114 103.532 35.5114ZM103.566 29.8864C104.771 29.8864 105.776 29.5455 106.583 28.8636C107.39 28.1705 107.998 27.2273 108.407 26.0341C108.827 24.8409 109.038 23.483 109.038 21.9602C109.038 20.4375 108.827 19.0795 108.407 17.8864C107.998 16.6932 107.39 15.75 106.583 15.0568C105.776 14.3636 104.771 14.017 103.566 14.017C102.35 14.017 101.327 14.3636 100.498 15.0568C99.6797 15.75 99.0604 16.6932 98.6399 17.8864C98.2308 19.0795 98.0263 20.4375 98.0263 21.9602C98.0263 23.483 98.2308 24.8409 98.6399 26.0341C99.0604 27.2273 99.6797 28.1705 100.498 28.8636C101.327 29.5455 102.35 29.8864 103.566 29.8864Z" fill="black"/>
</g>
<defs>
<filter id="filter0_d_5_552" x="0.791901" y="0.0908813" width="119.626" height="53.2728" filterUnits="userSpaceOnUse" color-interpolation-filters="sRGB">
<feFlood flood-opacity="0" result="BackgroundImageFix"/>
<feColorMatrix in="SourceAlpha" type="matrix" values="0 0 0 0 0 0 0 0 0 0 0 0 0 0 0 0 0 0 127 0" result="hardAlpha"/>
<feOffset dy="4"/>
<feGaussianBlur stdDeviation="2"/>
<feComposite in2="hardAlpha" operator="out"/>
<feColorMatrix type="matrix" values="0 0 0 0 0 0 0 0 0 0 0 0 0 0 0 0 0 0 0.25 0"/>
<feBlend mode="normal" in2="BackgroundImageFix" result="effect1_dropShadow_5_552"/>
<feBlend mode="normal" in="SourceGraphic" in2="effect1_dropShadow_5_552" result="shape"/>
</filter>
</defs>
</svg>
