<svg width="11" height="14" viewBox="0 0 11 14" fill="none" xmlns="http://www.w3.org/2000/svg">
<path d="M9.90576 4.9147C9.61363 4.9147 9.22667 4.9077 8.7449 4.9077C7.56995 4.9077 6.60384 3.8556 6.60384 2.5725V0.3213C6.60384 0.1442 6.47251 0 6.31042 0H2.8887C1.29155 0 0 1.4182 0 3.1563V10.6988C0 12.5223 1.35306 14 3.02196 14H8.1177C9.70972 14 11 12.5909 11 10.8514V5.2297C11 5.0519 10.8693 4.9084 10.7066 4.9091C10.433 4.9112 10.105 4.9147 9.90576 4.9147Z" fill="#FEFEFE"/>
<path d="M7.65922 0.114675C7.41914 -0.127199 7 0.0392349 7 0.374437V2.42531C7 3.28548 7.73068 3.99322 8.61873 3.99322C9.17919 3.99944 9.95643 4.00099 10.6165 3.99944C10.9545 3.99866 11.1263 3.60746 10.8919 3.37103C10.0448 2.51786 8.528 0.988844 7.65922 0.114675Z" fill="#FEFEFE"/>
<path d="M7.84805 7.93571C7.64568 7.72217 7.31996 7.72069 7.11759 7.93719L6.01636 9.11724V5.55049C6.01636 5.2468 5.78488 5 5.50004 5C5.21521 5 4.98373 5.2468 4.98373 5.55049V9.11724L3.8818 7.93719C3.68013 7.72069 3.35371 7.72217 3.15204 7.93571C2.94967 8.15 2.94967 8.49803 3.14996 8.71379L5.13412 10.8389H5.13481C5.18194 10.8892 5.23808 10.9298 5.30114 10.9579C5.36352 10.9852 5.43143 11 5.50004 11C5.56935 11 5.63726 10.9852 5.69964 10.9571C5.76132 10.9298 5.81745 10.8892 5.86458 10.8397L5.86597 10.8389L7.84944 8.71379C8.05042 8.49803 8.05042 8.15 7.84805 7.93571Z" fill="#060606"/>
</svg>
