<svg width="12" height="9" viewBox="0 0 12 9" fill="none" xmlns="http://www.w3.org/2000/svg">
<path d="M10.9774 0.0794748C10.9774 0.0794748 12.0873 -0.310131 11.9945 0.635911C11.9639 1.02547 11.6865 2.38911 11.4705 3.86378L10.7305 8.23262C10.7305 8.23262 10.6688 8.87266 10.1137 8.98403C9.5588 9.0951 8.72628 8.59442 8.57198 8.4831C8.44857 8.39954 6.25944 7.14727 5.48858 6.53527C5.27258 6.3681 5.02575 6.03435 5.51946 5.64479L8.75683 2.86199C9.12685 2.52823 9.49682 1.74907 7.95514 2.69511L3.63804 5.3385C3.63804 5.3385 3.14461 5.61698 2.21977 5.36655L0.215216 4.80983C0.215216 4.80983 -0.524766 4.39251 0.739524 3.97515C3.82316 2.66731 7.616 1.33175 10.9768 0.0794748H10.9774Z" fill="#FEFEFE"/>
</svg>
