<svg width="12" height="12" viewBox="0 0 12 12" fill="none" xmlns="http://www.w3.org/2000/svg">
<path fill-rule="evenodd" clip-rule="evenodd" d="M8.31388 0.450435C9.03941 0.749789 9.69803 1.1895 10.2516 1.74404C10.8079 2.29539 11.2489 2.951 11.549 3.67304C11.8491 4.39507 12.0024 5.16916 12 5.95054C11.999 9.22954 9.31814 11.897 6.02534 11.897H6.02285C5.02509 11.897 4.04331 11.6481 3.16717 11.173L0 12L0.847569 8.91851C0.324554 8.01704 0.0497539 6.99403 0.0502616 5.94602C0.0512308 2.66753 2.73208 1.99416e-05 6.02488 1.99416e-05C6.81028 -0.00201083 7.58829 0.151081 8.31388 0.450435ZM7.45611 6.69593C7.59125 6.74531 8.31711 7.09996 8.46512 7.17357C8.49374 7.18779 8.52051 7.20067 8.54529 7.21257C8.64872 7.26223 8.71818 7.29556 8.74782 7.34499C8.7846 7.40624 8.7846 7.70014 8.66188 8.04293C8.53865 8.38576 7.94848 8.69891 7.66528 8.74091C7.41092 8.77894 7.089 8.79477 6.73523 8.68262C6.52112 8.61547 6.24637 8.52505 5.89366 8.3739C4.51205 7.78082 3.57794 6.45048 3.39872 6.1952C3.3858 6.17688 3.37685 6.16405 3.37186 6.1575L3.37066 6.15588C3.29229 6.05185 2.76923 5.35742 2.76923 4.63908C2.76923 3.96145 3.10426 3.60694 3.25781 3.44444C3.26806 3.43364 3.27748 3.42367 3.28592 3.41453C3.42106 3.26734 3.58103 3.23079 3.67938 3.23079C3.77774 3.23079 3.87614 3.23176 3.96258 3.23573C3.97334 3.23633 3.98451 3.23628 3.99609 3.23624C4.08189 3.23601 4.18892 3.23564 4.29443 3.48764C4.33731 3.58987 4.40095 3.74397 4.46728 3.90459C4.59166 4.20574 4.72555 4.52984 4.74951 4.57784C4.78675 4.6514 4.81163 4.73688 4.76192 4.83468C4.75449 4.84954 4.74766 4.86353 4.74111 4.87687C4.70428 4.95205 4.67723 5.0072 4.61437 5.08017C4.58894 5.10957 4.56263 5.14137 4.53641 5.17308C4.48634 5.23359 4.43649 5.29391 4.39278 5.33702C4.31875 5.41013 4.24228 5.48965 4.32822 5.63637C4.41415 5.78356 4.71074 6.2642 5.14943 6.65342C5.61923 7.06991 6.02797 7.24673 6.23663 7.337C6.27845 7.35505 6.31218 7.36968 6.33683 7.38205C6.48438 7.45516 6.57032 7.4433 6.65677 7.34499C6.74271 7.24719 7.0254 6.91622 7.12375 6.77C7.22261 6.62282 7.32097 6.647 7.45611 6.69593Z" fill="#FEFEFE"/>
</svg>
